<?xml version="1.0" encoding="utf-8"?>
<!-- Generator: Adobe Illustrator 19.2.1, SVG Export Plug-In . SVG Version: 6.00 Build 0)  -->
<svg version="1.1" id="Layer_1" xmlns="http://www.w3.org/2000/svg" xmlns:xlink="http://www.w3.org/1999/xlink" x="0px" y="0px"
	 viewBox="0 0 2048 2048" style="enable-background:new 0 0 2048 2048;" xml:space="preserve">
<g>
	<path d="M1262.8,1617.1c-82.2-19-121.9-29.5-238.8-29.5c-116.9,0-156.5,10.5-238.8,29.5c-41.6,9.6-68.9,19.8-86.2,28.7v67.9
		c21-8.8,46.9-16.8,77.3-23.8c85.1-19.6,127.9-30.4,247.7-30.4s162.6,10.8,247.7,30.5c30.4,7,56.2,15,77.3,23.7v-67.9
		C1331.6,1636.9,1304.4,1626.7,1262.8,1617.1z"/>
	<path d="M791.7,651.3l57.9,60.4c69.6-12.7,84.8-19.6,174.4-19.6c89.6,0,104.8,6.9,174.4,19.6l58-60.5c-9.8-2.9-20.4-5.7-31.8-8.4
		c-72-16.6-98.1-25.7-200.6-25.7c-102.4,0-128.5,9.2-200.6,25.8C812.1,645.6,801.5,648.4,791.7,651.3z"/>
	<path d="M1024,384.3c104,0,132,9.3,206.5,26.1l33.6-54.5c-11.8-3.8-25.1-7.4-39.5-10.7c-72-16.6-98.1-25.8-200.6-25.8
		s-128.5,9.1-200.6,25.7c-14.4,3.3-27.7,6.9-39.5,10.7l33.6,54.5C892,393.5,920,384.3,1024,384.3z"/>
	<path d="M1139.1,295.2c-7.1-31.9-27.2-56.9-115.1-56.9c-87.9,0-108.1,25-115.1,56.9c46.3-9.4,53.1-14.6,115.1-14.6
		C1086,280.6,1092.8,285.8,1139.1,295.2z"/>
	<path d="M1166.2,591.5l37.2-146c-69.2-13.7-86.7-21.2-179.5-21.2c-92.7,0-110.3,7.5-179.4,21.2l37.2,146
		c62.9-9.3,66-14.3,142.2-14.3C1100.2,577.2,1103.3,582.2,1166.2,591.5z M987,497.9c0-20.4,16.6-37,37-37s37,16.6,37,37
		s-16.6,37-37,37S987,518.3,987,497.9z"/>
	<path d="M1007.3,1547.6c-7,0.1-13.7,0.2-20.3,0.3v-66.4c0-20.4,16.6-37,37-37s37,16.6,37,37v66.4c-6.6-0.1-13.3-0.2-20.3-0.3
		c107.3,1,150,11.7,231,30.4c2,0.5,4,0.9,6,1.4l-93.3-829.5c-65.9-11.5-76-17.7-160.4-17.7c-84.4,0-94.5,6.2-160.4,17.7l-93.3,829.4
		c2-0.5,4-0.9,6-1.4C857.3,1559.3,900,1548.6,1007.3,1547.6z M987,894.5c0-20.4,16.6-37,37-37s37,16.6,37,37v66.4
		c-11.7-0.3-24-0.4-37-0.4s-25.3,0.1-37,0.4V894.5z"/>
</g>
</svg>
